<?xml version="1.0" encoding="UTF-8"?>
<!DOCTYPE svg
PUBLIC "-//W3C//DTD SVG 1.1//EN"
       "http://www.w3.org/Graphics/SVG/1.1/DTD/svg11.dtd">
<svg viewBox="108 15 757 495" width="649px" height="480px" xmlns="http://www.w3.org/2000/svg" version="1.1">
   <line x1="676" y1="175" x2="666" y2="175" style="stroke:#cb0;stroke-width:1;"/>
   <line x1="500" y1="251" x2="490" y2="251" style="stroke:#cb0;stroke-width:1;"/>
   <line x1="666" y1="175" x2="500" y2="251" style="stroke:#cb0;stroke-width:1;"/>
   <line x1="668.5" y1="175" x2="672.03553390593" y2="178.53553390593" style="stroke:#cb0;stroke-width:2;"/>
   <line x1="668.5" y1="175" x2="672.03553390593" y2="171.46446609407" style="stroke:#cb0;stroke-width:2;"/>
   <line x1="495" y1="251" x2="498.53553390593" y2="254.53553390593" style="stroke:#cb0;stroke-width:2;"/>
   <line x1="495" y1="251" x2="498.53553390593" y2="247.46446609407" style="stroke:#cb0;stroke-width:2;"/>
   <line x1="206" y1="470" x2="216" y2="470" style="stroke:#cb0;stroke-width:1;"/>
   <line x1="406" y1="251" x2="416" y2="251" style="stroke:#cb0;stroke-width:1;"/>
   <line x1="216" y1="470" x2="406" y2="251" style="stroke:#cb0;stroke-width:1;"/>
   <line x1="213.5" y1="470" x2="209.96446609407" y2="473.53553390593" style="stroke:#cb0;stroke-width:2;"/>
   <line x1="213.5" y1="470" x2="209.96446609407" y2="466.46446609407" style="stroke:#cb0;stroke-width:2;"/>
   <line x1="411" y1="251" x2="407.46446609407" y2="254.53553390593" style="stroke:#cb0;stroke-width:2;"/>
   <line x1="411" y1="251" x2="407.46446609407" y2="247.46446609407" style="stroke:#cb0;stroke-width:2;"/>
   <line x1="189" y1="228" x2="199" y2="228" style="stroke:#0b0;stroke-width:1;"/>
   <line x1="406" y1="251" x2="416" y2="251" style="stroke:#0b0;stroke-width:1;"/>
   <line x1="199" y1="228" x2="406" y2="251" style="stroke:#0b0;stroke-width:1;"/>
   <line x1="196.5" y1="228" x2="192.96446609407" y2="231.53553390593" style="stroke:#0b0;stroke-width:2;"/>
   <line x1="196.5" y1="228" x2="192.96446609407" y2="224.46446609407" style="stroke:#0b0;stroke-width:2;"/>
   <line x1="411" y1="251" x2="407.46446609407" y2="254.53553390593" style="stroke:#0b0;stroke-width:2;"/>
   <line x1="411" y1="251" x2="407.46446609407" y2="247.46446609407" style="stroke:#0b0;stroke-width:2;"/>
   <line x1="640" y1="418" x2="630" y2="418" style="stroke:#0bf;stroke-width:1;"/>
   <line x1="500" y1="251" x2="490" y2="251" style="stroke:#0bf;stroke-width:1;"/>
   <line x1="630" y1="418" x2="500" y2="251" style="stroke:#0bf;stroke-width:1;"/>
   <line x1="632.5" y1="418" x2="636.03553390593" y2="421.53553390593" style="stroke:#0bf;stroke-width:2;"/>
   <line x1="632.5" y1="418" x2="636.03553390593" y2="414.46446609407" style="stroke:#0bf;stroke-width:2;"/>
   <line x1="495" y1="251" x2="498.53553390593" y2="254.53553390593" style="stroke:#0bf;stroke-width:2;"/>
   <line x1="495" y1="251" x2="498.53553390593" y2="247.46446609407" style="stroke:#0bf;stroke-width:2;"/>
   <line x1="413" y1="140" x2="403" y2="140" style="stroke:#0b0;stroke-width:1;"/>
   <line x1="406" y1="251" x2="416" y2="251" style="stroke:#0b0;stroke-width:1;"/>
   <line x1="403" y1="140" x2="406" y2="251" style="stroke:#0b0;stroke-width:1;"/>
   <line x1="405.5" y1="140" x2="409.03553390593" y2="143.53553390593" style="stroke:#0b0;stroke-width:2;"/>
   <line x1="405.5" y1="140" x2="409.03553390593" y2="136.46446609407" style="stroke:#0b0;stroke-width:2;"/>
   <line x1="411" y1="251" x2="407.46446609407" y2="254.53553390593" style="stroke:#0b0;stroke-width:2;"/>
   <line x1="411" y1="251" x2="407.46446609407" y2="247.46446609407" style="stroke:#0b0;stroke-width:2;"/>
   <rect width="66" height="20" x="676" y="125" style="fill:#007;stroke:black;"/>
   <text width="66" height="20" x="681" y="139" style="fill:#fff;" font-family="Arial" font-size="16px"> admin</text>
   <rect width="66" height="20" x="676" y="145" style="fill:#aea;stroke:black;"/>
   <text width="66" height="20" x="681" y="159" style="fill:black;" font-family="Arial" font-size="16px">id</text>
   <rect width="66" height="20" x="676" y="165" style="fill:none;stroke:black;"/>
   <text width="66" height="20" x="681" y="179" style="fill:black;" font-family="Arial" font-size="16px">account</text>
   <rect width="83" height="20" x="123" y="340" style="fill:#007;stroke:black;"/>
   <text width="83" height="20" x="128" y="354" style="fill:#fff;" font-family="Arial" font-size="16px"> companies</text>
   <rect width="83" height="20" x="123" y="360" style="fill:#aea;stroke:black;"/>
   <text width="83" height="20" x="128" y="374" style="fill:black;" font-family="Arial" font-size="16px">id</text>
   <rect width="83" height="20" x="123" y="380" style="fill:none;stroke:black;"/>
   <text width="83" height="20" x="128" y="394" style="fill:black;" font-family="Arial" font-size="16px">name</text>
   <rect width="83" height="20" x="123" y="400" style="fill:none;stroke:black;"/>
   <text width="83" height="20" x="128" y="414" style="fill:black;" font-family="Arial" font-size="16px">work_start</text>
   <rect width="83" height="20" x="123" y="420" style="fill:none;stroke:black;"/>
   <text width="83" height="20" x="128" y="434" style="fill:black;" font-family="Arial" font-size="16px">work_end</text>
   <rect width="83" height="20" x="123" y="440" style="fill:none;stroke:black;"/>
   <text width="83" height="20" x="128" y="454" style="fill:black;" font-family="Arial" font-size="16px">location</text>
   <rect width="83" height="20" x="123" y="460" style="fill:none;stroke:black;"/>
   <text width="83" height="20" x="128" y="474" style="fill:black;" font-family="Arial" font-size="16px">account_id</text>
   <rect width="41" height="20" x="148" y="178" style="fill:#007;stroke:black;"/>
   <text width="41" height="20" x="153" y="192" style="fill:#fff;" font-family="Arial" font-size="16px"> login</text>
   <rect width="41" height="20" x="148" y="198" style="fill:#aea;stroke:black;"/>
   <text width="41" height="20" x="153" y="212" style="fill:black;" font-family="Arial" font-size="16px">id</text>
   <rect width="41" height="20" x="148" y="218" style="fill:none;stroke:black;"/>
   <text width="41" height="20" x="153" y="232" style="fill:black;" font-family="Arial" font-size="16px">user</text>
   <rect width="83" height="20" x="640" y="328" style="fill:#007;stroke:black;"/>
   <text width="83" height="20" x="645" y="342" style="fill:#fff;" font-family="Arial" font-size="16px"> partners</text>
   <rect width="83" height="20" x="640" y="348" style="fill:#aea;stroke:black;"/>
   <text width="83" height="20" x="645" y="362" style="fill:black;" font-family="Arial" font-size="16px">id</text>
   <rect width="83" height="20" x="640" y="368" style="fill:none;stroke:black;"/>
   <text width="83" height="20" x="645" y="382" style="fill:black;" font-family="Arial" font-size="16px">name</text>
   <rect width="83" height="20" x="640" y="388" style="fill:none;stroke:black;"/>
   <text width="83" height="20" x="645" y="402" style="fill:black;" font-family="Arial" font-size="16px">relation</text>
   <rect width="83" height="20" x="640" y="408" style="fill:none;stroke:black;"/>
   <text width="83" height="20" x="645" y="422" style="fill:black;" font-family="Arial" font-size="16px">account_id</text>
   <rect width="100" height="20" x="413" y="30" style="fill:#007;stroke:black;"/>
   <text width="100" height="20" x="418" y="44" style="fill:#fff;" font-family="Arial" font-size="16px"> projects</text>
   <rect width="100" height="20" x="413" y="50" style="fill:none;stroke:black;"/>
   <text width="100" height="20" x="418" y="64" style="fill:black;" font-family="Arial" font-size="16px">name</text>
   <rect width="100" height="20" x="413" y="70" style="fill:none;stroke:black;"/>
   <text width="100" height="20" x="418" y="84" style="fill:black;" font-family="Arial" font-size="16px">description</text>
   <rect width="100" height="20" x="413" y="90" style="fill:none;stroke:black;"/>
   <text width="100" height="20" x="418" y="104" style="fill:black;" font-family="Arial" font-size="16px">technologies</text>
   <rect width="100" height="20" x="413" y="110" style="fill:none;stroke:black;"/>
   <text width="100" height="20" x="418" y="124" style="fill:black;" font-family="Arial" font-size="16px">github</text>
   <rect width="100" height="20" x="413" y="130" style="fill:none;stroke:black;"/>
   <text width="100" height="20" x="418" y="144" style="fill:black;" font-family="Arial" font-size="16px">account_id</text>
   <rect width="100" height="20" x="413" y="150" style="fill:#aea;stroke:black;"/>
   <text width="100" height="20" x="418" y="164" style="fill:black;" font-family="Arial" font-size="16px">id</text>
   <rect width="74" height="20" x="416" y="221" style="fill:#007;stroke:black;"/>
   <text width="74" height="20" x="421" y="235" style="fill:#fff;" font-family="Arial" font-size="16px"> signup</text>
   <rect width="74" height="20" x="416" y="241" style="fill:#aea;stroke:black;"/>
   <text width="74" height="20" x="421" y="255" style="fill:black;" font-family="Arial" font-size="16px">id</text>
   <rect width="74" height="20" x="416" y="261" style="fill:none;stroke:black;"/>
   <text width="74" height="20" x="421" y="275" style="fill:black;" font-family="Arial" font-size="16px">user</text>
   <rect width="74" height="20" x="416" y="281" style="fill:none;stroke:black;"/>
   <text width="74" height="20" x="421" y="295" style="fill:black;" font-family="Arial" font-size="16px">email</text>
   <rect width="74" height="20" x="416" y="301" style="fill:none;stroke:black;"/>
   <text width="74" height="20" x="421" y="315" style="fill:black;" font-family="Arial" font-size="16px">pwd</text>
   <rect width="74" height="20" x="416" y="321" style="fill:none;stroke:black;"/>
   <text width="74" height="20" x="421" y="335" style="fill:black;" font-family="Arial" font-size="16px">activated</text>
   <rect width="74" height="20" x="416" y="341" style="fill:none;stroke:black;"/>
   <text width="74" height="20" x="421" y="355" style="fill:black;" font-family="Arial" font-size="16px">banned</text>
</svg>
